<?xml version="1.0" encoding="utf-8"?>
<!-- Generator: Adobe Illustrator 18.0.0, SVG Export Plug-In . SVG Version: 6.00 Build 0)  -->
<!DOCTYPE svg PUBLIC "-//W3C//DTD SVG 1.1//EN" "http://www.w3.org/Graphics/SVG/1.1/DTD/svg11.dtd">
<svg version="1.1" id="Layer_1" xmlns="http://www.w3.org/2000/svg" xmlns:xlink="http://www.w3.org/1999/xlink" x="0px" y="0px"
	 viewBox="0 0 1920 1279" enable-background="new 0 0 1920 1279" xml:space="preserve">
<g>
	<path fill="#F4AE00" d="M687.8,402c2.6,0,2.6,1.7,2.6,2.6c1.7,4.3,1.7,8.5,2.6,13.9c4.3,14.7,11.3,27.5,21.5,39.6
		c7,8.5,16.4,18.1,25.2,27.5c5.3,7,13.9,13.9,20.9,20.9c9.6,11.3,20.9,23.2,28.6,37.1c4.3,7,9.6,14.7,16.4,21.5
		c0,1.7,1.7,1.7,2.6,2.6c0-1.7-1.7-2.6-1.7-2.6c-13.9-20.9-19-44.1-18.1-67.4c0-16.4,2.6-30.3,5.3-45c2.6-11.3,4.3-23.2,5.3-34.5
		c0-5.3,0-9.6,0-16.4c0-1.7,0-4.3,0-5.3c0,0,0,0,1.7,0c0,1.7,1.7,2.6,1.7,4.3c5.3,14.7,9.6,30.3,13.9,46.7c2.6,20.9,5.3,41.4,7,61.4
		c1.7,21.5,4.3,44.1,8.5,65.7c1.7,5.3,2.6,13.9,5.3,19c2.6,7,5.3,14.7,9.6,21.5c0,1.7,1.7,2.6,1.7,4.3c-1.7,0-1.7-1.7-2.6-1.7
		c-25.8-18.1-51.8-32.8-76.7-50.9c-16.4-11.3-30.3-25.2-44.1-39.6c-18.1-20.9-28.6-45-32.8-71.6c0-2.6-1.7-7-2.6-9.6
		C687.8,429.7,687.8,415.9,687.8,402z"/>
	<path fill="#F4AE00" d="M687.8,306.3c0-1.7,1.7-4.3,1.7-5.3c1.7-13.9,4.3-25.2,8.5-37.9c1.7-2.6,1.7-4.3,2.6-7c0,1.7,0,2.6,0,4.3
		c-2.6,20.9,0,39.6,7,56.1c5.3,14.7,11.3,27.5,19,42.4c9.6,21.5,16.4,44.1,20.9,65.7c1.7,7,4.3,14.7,5.3,21.5c0,1.7,0,1.7,1.7,2.6
		c0-1.7,0-1.7,0-1.7c-8.5-25.2-5.3-48.4,1.7-72.5c5.3-19,16.4-37.1,27.5-53.5c8.5-13.9,14.7-25.8,19-41.4c0-1.7,1.7-2.6,1.7-4.3
		c0,0,0,0,1.7,0c0,2.6,1.7,4.3,0,7c0,9.6,0,19-1.7,28.6c-2.6,18.1-4.3,32.8-8.5,49.2c-4.3,19-9.6,37.9-16.4,56.1
		c-1.7,5.3-2.6,13.9-5.3,19c-4.3,14.7-4.3,28.6-2.6,42.4c0,5.3,1.7,9.6,1.7,16.4c-2.6,0-2.6-1.7-4.3-2.6
		c-9.6-19-25.8-34.5-39.6-51.8c-2.6-2.6-5.3-7-7-9.6c-14.7-18.1-21.5-37.9-25.8-58.6c-1.7-8.5-2.6-19-4.3-27.5
		c0-1.7-1.7-4.3-1.7-5.3C687.8,328.7,687.8,317.4,687.8,306.3z"/>
	<path fill="#F4AE00" d="M1450.1,7.5c1.7,0,2.6,1.7,2.6,1.7c11.3,4.3,23.2,8.5,32.8,13.9c32.8,13.9,55.2,37.1,69.9,68.2
		c4.3,9.6,7,20.9,9.6,30.3c1.7,4.3,2.6,8.5,4.3,14.7c0,1.7,0,2.6,0,4.3c-1.7-1.7-2.6-2.6-4.3-2.6c-32.8-25.2-61.4-53.5-84.6-88.9
		c-4.3-7-9.6-14.7-18.1-20.9c-5.3-5.3-9.6-9.6-16.4-16.4c-1.7-1.7-1.7-2.6-2.6-4.3C1448.4,7.5,1448.4,7.5,1450.1,7.5z"/>
	<path fill="#F4AE00" d="M1025.4,498.8c16.4,0,31.8,0,48.4,0c1.7,0,4.3,0,5.3,0c0.9,0,2.6-1.7,2.6-2.6c0-1.7-1.7-2.6-2.6-2.6
		c-1.7,0-2.6,0-4.3,0c-16.4,0-31.8,0-48.4,0h-2.6c0,2.6,0,4.3-1.7,7C1023.5,498.8,1023.5,498.8,1025.4,498.8z"/>
	<path fill="#F4AE00" d="M1315.3,522.3c1.7,0,2.6,0,4.3,0c13.9,0,25.2-1.7,37.9-1.7c1.7,0,4.3,0,5.3-1.7c0,2.6,0,4.3,0,7l0,0
		c0-9.6,0-20.9-1.7-27.5c-1.7-9.6-2.6-19-5.3-28.6c2.6,14.7,5.3,30.3,5.3,45c-2.6,0-4.3-1.7-7-1.7c-13.9,0-25.8,0-37.9,1.7
		c-1.7,0-2.6,0-4.3,0s-1.7,1.7-1.7,2.6C1314.7,520.3,1314.7,522.3,1315.3,522.3z"/>
	<path fill="#F4AE00" d="M706.8,1074.8c0-1.7,1.7-2.6,1.7-2.6c1.7-1.7,4.3-2.6,5.3-4.3c34.5-25.2,69.9-48.4,104.5-72.5
		c1.7-1.7,2.6-1.7,2.6-2.6c-37.1,2.6-74.2,4.3-111.3,7c0-4.3,0-4.3,4.3-5.3c8.5-2.6,18.1-7,25.8-9.6c37.1-14.7,74.2-28.6,112.3-41.4
		c2.6-1.7,5.3-1.7,8.5-2.6c4.3-2.6,7-5.3,7-11.3c0-5.3,0-11.3,1.7-18.1c0-7,1.7-9.6,8.5-11.3c8.5-2.6,16.4-4.3,25.2-7
		c30.3-8.5,62.9-14.7,95.1-20.9c20.9-2.6,39.6-5.3,58.6-8.5c21.5-2.6,44.1-4.3,65.7-5.3c31.8-1.7,65.7-2.6,97.6-1.7
		c16.4,0,31.8,1.7,46.7,2.6c16.4,1.7,30.3,2.6,46.7,4.3c14.7,1.7,28.6,2.6,42.4,5.3c21.5,2.6,42.4,7,64.6,11.3
		c25.2,5.3,48.4,11.3,72.5,18.1c2.6,1.7,5.3,1.7,8.5,2.6c4.3,1.7,7,5.3,7,11.3c0,4.3,1.7,9.6,0,14.7c0,8.5,2.6,11.3,11.3,14.7
		c19,5.3,37.9,11.3,56.1,19c28.6,9.6,56.1,21.5,86.3,32.8c4.3,1.7,4.3,1.7,4.3,5.3c-37.1-2.6-74.2-4.3-111.3-7
		c13.9,9.6,25.8,19,39.6,27.5c13.9,8.5,25.8,18.1,39.6,27.5c13.9,8.5,25.8,19,41.4,27.5c-1.7,1.7-1.7,2.6-2.6,4.3
		c-9.6-4.3-20.9-8.5-28.6-13.9c-64.6-25.8-128.5-48.4-196.1-65.7c-19-4.3-39.6-8.5-58-13.9c-1.7,0-1.7,0-2.6,0
		c-1.7,0-1.7-1.7-1.7-2.6c0-8.5,0-16.4,0-25.2c0-5.3-1.7-7-7-8.5c-7-1.7-13.9-2.6-20.9-2.6c-13.9-1.7-25.8-4.3-39.6-5.3
		c-11.3-1.7-21.5-2.6-32.8-2.6c-16.4-1.7-31.8-2.6-48.4-2.6c-21.5,0-45-1.7-67.4-1.7c-18.1,0-37.1,1.7-53.5,1.7
		c-16.4,1.7-30.3,2.6-46.7,4.3c-19,2.6-37.9,5.3-56.1,7c-4.3,0-7,1.7-11.3,1.7c-4.3,1.7-4.3,1.7-4.3,5.3c0,7,0,13.9-1.7,20.9
		c0,1.7,0,2.6,0,2.6c-1.7,7-2.6,8.5-8.5,9.6c-49.2,9.6-98.5,21.5-146.7,37.9c-37.1,11.3-72.5,25.2-105.3,41.4
		c-5.3,2.6-13.9,4.3-20.9,7C711.2,1074.8,709.5,1074.8,706.8,1074.8C708.5,1074.8,708.5,1074.8,706.8,1074.8z M1189.4,860.6
		c-19,0-37.9,0-56.1,1.7c-25.2,1.7-48.4,2.6-72.5,5.3c-19,2.6-37.1,4.3-55.2,8.5c-28.6,4.3-58,11.3-88,19c-9.6,2.6-19,4.3-28.6,7
		c-7,1.7-9.6,5.3-8.5,13.9c0,14.7,0,28.6,0,44.1c0,7,1.7,8.5,8.5,5.3c30.3-8.5,61.4-16.4,91.4-21.5c39.6-7,78.4-13.9,119.2-16.4
		c21.5-1.7,44.1-2.6,65.7-4.3c44.1-1.7,88,0,130.5,5.3c21.5,2.6,44.1,5.3,67.4,8.5c30.3,4.3,58.6,9.6,90.8,18.1
		c14.7,2.6,27.5,7,42.4,9.6c5.3,1.7,5.3,0,5.3-4.3c0-7,0-14.7,0-23.2c0-8.5,0-18.1,0-25.8c0-5.3-1.7-7-5.3-8.5
		c-2.6-1.7-4.3-1.7-7-1.7c-37.1-9.6-74.2-19-112.3-25.2c-23.2-4.3-48.4-7-71.6-9.6c-19-1.7-37.9-2.6-56.1-4.3
		C1228.2,860.6,1209.4,860.6,1189.4,860.6z M1508.9,977.2c-14.7,1.7-28.6,2.6-42.4,2.6c-14.7,1.7-27.5,1.7-42.4,2.6
		c62.9,14.7,123.4,32.8,184,55.2c0,0,0,0,0-1.7c-25.8-19-51.8-37.1-79.5-55.2c0-1.7,1.7-2.6,1.7-4.3c31.8,1.7,62.9,4.3,93.4,5.3
		c-1.7-1.7-2.6-1.7-2.6-2.6c-18.1-5.3-32.8-13.9-50.9-19c-18.1-5.3-34.5-11.3-51.8-18.1c-2.6-1.7-4.3-2.6-8.5-1.7
		C1508.9,956.5,1508.9,965.9,1508.9,977.2z M850.9,984c-25.8,19-51.8,37.1-79.5,55.2c0,0,0,0,0,1.7c58-21.5,118.3-39.6,177.8-55.2
		c0,0,0,0,0-1.7c-25.8-1.7-50.9-4.3-76.7-5.3c0-1.7,0-1.7,0-2.6c0-7,0-14.7,0-23.2c0-1.7,0-2.6,0-4.3c-1.7-4.3-2.6-5.3-5.3-4.3
		c-37.1,11.3-72.5,23.2-107.9,37.9c-1.7,0-2.6,1.7-2.6,1.7l0,0c31.8-1.7,62.9-4.3,95.1-5.3C849.4,981.4,849.4,982.3,850.9,984z
		 M906.3,968.4C906.3,970.1,906.3,970.1,906.3,968.4c4.3,1.7,7,2.6,11.3,2.6c11.3,1.7,23.2,1.7,34.5,2.6c9.6,0,19,1.7,28.6,1.7
		c4.3,0,5.3-1.7,5.3-5.3s0-8.5,0-11.3c0-5.3-1.7-7-7-5.3l0,0c-16.4,4.3-32.8,7-49.2,11.3C920.8,965,912.3,967.8,906.3,968.4z
		 M1471.8,970.1L1471.8,970.1c-1.7-1.7-1.7-1.7-2.6-1.7c-23.2-7-45-13.9-68.2-18.1c-1.7,0-2.6,0-4.3,1.7c-1.7,1.7-2.6,4.3-2.6,7
		c0,4.3,0,7,0,11.3c0,2.6,1.7,4.3,4.3,4.3c1.7,0,1.7,0,2.6,0c16.4-1.7,31.8-1.7,46.7-2.6C1455.4,972,1462.4,972,1471.8,970.1z"/>
	<path fill="#F4AE00" d="M1326.6,809.6c-1.7,1.7-2.6,2.6-2.6,4.3c-4.3,4.3-8.5,8.5-14.7,11.3c-2.6,2.6-2.6,2.6-7,0
		c-11.3-11.3-23.2-25.2-37.1-34.5c-19-18.1-37.9-31.8-58.6-45c-2.6-1.7-4.3-2.6-7-4.3c-4.3-2.6-7-2.6-11.3-1.7
		c-4.3,2.6-9.6,4.3-14.7,7c-34.5,21.5-65.7,46.7-90.8,78.4c-2.6,2.6-2.6,2.6-5.3,0c-5.3-4.3-9.6-8.5-16.4-13.9
		c-1.7,0-1.7-1.7-2.6-1.7c2.6-5.3,30.3-30.3,50.9-45c19-13.9,37.9-25.2,58-34.5c-2.6-1.7-5.3-2.6-9.6-2.6
		c-13.9-1.7-25.2,1.7-34.5,8.5c-7,4.3-16.4,9.6-23.2,14.7c-13.9,8.5-25.8,18.1-39.6,25.8c-18.1,9.6-37.1,16.4-56.1,19
		c-48.4,7-95.1-19-118.3-42.4c-1.7-1.7-4.3-4.3-5.3-7c0,0,0,0,0-1.7c1.7,0,2.6,1.7,4.3,1.7c14.7,8.5,28.6,13.9,46.7,16.4
		c28.6,4.3,56.1,0,82.1-11.3c19-8.5,39.6-18.1,58.6-25.2c16.4-5.3,32.8-9.6,50.9-11.3c13.9-1.7,27.5-1.7,41.4,1.7
		c7,1.7,16.4,2.6,23.2,5.3c4.3,1.7,8.5,1.7,11.3-1.7c4.3-1.7,8.5-2.6,14.7-4.3c44.1-7,84.6,0,125.1,19c19,8.5,39.6,18.1,58.6,23.2
		c16.4,4.3,31.8,4.3,49.2,2.6c20.9-1.7,37.9-7,55.2-19h1.7c-1.7,1.7-1.7,2.6-2.6,4.3c-23.2,25.8-50.9,42.4-86.3,48.4
		c-23.2,4.3-45,0-68.2-7c-21.5-7-42.4-19-58.6-31.8c-7-5.3-14.7-9.6-21.5-14.7c-5.3-4.3-13.9-7-20.9-8.5c-9.6-1.7-19-1.7-28.6,1.7
		c20.9,9.6,39.6,21.5,58,34.5C1291.3,779.3,1308.7,794.9,1326.6,809.6z"/>
	<path fill="#F4AE00" d="M1659.8,531.6c0,4.3-1.7,7-1.7,11.3c-5.3,23.2-16.4,42.4-30.3,61.4c-25.2,30.3-53.5,51.8-90.8,65.7
		c-9.6,4.3-20.9,5.3-31.8,8.5c-21.5,4.3-44.1,7-65.7,14.7c0,0-1.7,0-2.6,0c0-1.7,1.7-1.7,1.7-1.7c18.1-16.4,28.6-34.5,37.9-56.1
		c5.3-14.7,9.6-30.3,16.4-46.7c4.3-14.7,9.6-28.6,18.1-42.4c11.3-19,23.2-37.9,37.9-55.2c0,0,1.7-1.7,1.7-2.6c0,0,1.7,0,1.7,1.7v1.7
		c-7,14.7-9.6,30.3-13.9,46.7c-2.6,14.7-4.3,30.3-7,45c-4.3,25.8-16.4,48.4-32.8,67.4c-4.3,4.3-8.5,9.6-14.7,14.7
		c1.7-1.7,2.6-1.7,4.3-1.7c2.6-1.7,5.3-4.3,8.5-7c14.7-13.9,30.3-25.2,48.4-32.8c14.7-7,30.3-14.7,45-23.2
		c14.7-7,28.6-16.4,41.4-27.5C1641.9,558.3,1652.2,545.5,1659.8,531.6C1658.1,532.5,1659.8,531.6,1659.8,531.6L1659.8,531.6z"/>
	<path fill="#F4AE00" d="M945.9,694.7c-1.7,0-2.6,0-2.6,0c-14.7-4.3-28.6-7-44.1-8.5c-14.7-2.6-30.3-5.3-45-8.5
		c-20.9-4.3-37.9-14.7-53.5-25.8c-25.2-18.1-45-39.6-61.4-65.7c-7-13.9-13.9-27.5-16.4-42.4c0-1.7,0-2.6,0-4.3l1.7,1.7
		c9.6,21.5,25.8,37.9,46.7,50.9c14.7,9.6,30.3,18.1,46.7,25.2c13.9,5.3,25.8,13.9,37.9,20.9c9.6,5.3,20.9,14.7,30.3,21.5
		c4.3,2.6,8.5,5.3,13.9,8.5c0,0,1.7,0,2.6,0c-1.7-1.7-2.6-2.6-4.3-4.3c-16.4-14.7-28.6-30.3-37.1-50.9c-4.3-13.9-7-25.8-9.6-41.4
		c-2.6-18.1-4.3-34.5-8.5-51.8c-1.7-7-4.3-13.9-7-20.9c0-1.7,0-1.7,0-2.6l1.7,1.7c16.4,19,30.3,39.6,42.4,61.4
		c5.3,11.3,9.6,23.2,13.9,34.5c5.3,16.4,11.3,32.8,18.1,49.2C918.2,662.1,929.5,679.1,945.9,694.7
		C944.2,693,945.9,694.7,945.9,694.7L945.9,694.7z"/>
	<path fill="#F4AE00" d="M1308.7,716.5c1.7,0,2.6-1.7,4.3-1.7c11.3-2.6,23.2-5.3,32.8-9.6c16.4-5.3,30.3-16.4,44.1-28.6
		c19-19,37.1-37.1,56.1-53.5c8.5-8.5,20.9-16.4,30.3-25.2c1.7-1.7,1.7-1.7,4.3-2.6c0,1.7,0,2.6-1.7,2.6c-7,9.6-13.9,20.9-18.1,31.8
		c-4.3,9.6-9.6,20.9-14.7,30.3c-13.9,25.2-32.8,41.4-58.6,48.4c-2.6,0-5.3,1.7-7,2.6c0,0,0,0-1.7,1.7c4.3,1.7,8.5,0,13.9-1.7
		c16.4-4.3,32.8-5.3,50.9-7c13.9-1.7,25.2-1.7,37.9-2.6c21.5-1.7,42.4-4.3,62.9-11.3c16.4-5.3,30.3-16.4,42.4-27.5l1.7-1.7h1.7
		c0,1.7-1.7,2.6-1.7,4.3c-4.3,7-8.5,13.9-13.9,20.9c-25.2,28.6-56.1,49.2-95.1,56.1c-14.7,2.6-28.6,2.6-44.1,1.7
		c-25.2-1.7-49.2-8.5-72.5-14.7c-16.4-4.3-30.3-7-46.7-8.5C1310.2,717.9,1308.7,717.9,1308.7,716.5L1308.7,716.5z"/>
	<path fill="#F4AE00" d="M1582.2,389v1.7c-1.7,18.1,1.7,37.1,4.3,53.5c2.6,13.9,5.3,27.5,5.3,41.4c1.7,25.2-2.6,48.4-14.7,69.9
		c-1.7,1.7-1.7,4.3-2.6,5.3c1.7-1.7,1.7-2.6,2.6-2.6c7-11.3,16.4-21.5,23.2-32.8c9.6-14.7,20.9-27.5,32.8-39.6
		c11.3-11.3,23.2-23.2,32.8-37.9c9.6-14.7,18.1-30.3,20.9-48.4v-1.7c0,0,0,0,1.7-1.7c0,1.7,1.7,2.6,1.7,4.3
		c1.7,20.9,0,41.4-5.3,58.6c-8.5,25.8-21.5,48.4-41.4,68.2c-16.4,18.1-32.8,30.3-53.5,44.1c-19,11.3-37.9,23.2-55.2,37.1
		c0,0-1.7,0-1.7,1.7c-1.7-1.7,0-2.6,0-4.3c8.5-16.4,14.7-31.8,18.1-49.2c2.6-13.9,4.3-25.8,5.3-41.4c2.6-21.5,4.3-44.1,5.3-67.4
		c1.7-20.9,8.5-41.4,16.4-61.4C1580.5,390.1,1580.5,389,1582.2,389C1580.5,389,1582.2,389,1582.2,389z"/>
	<path fill="#F4AE00" d="M1007.3,712c-2.6,0-4.3-1.7-7-1.7c-25.2-5.3-45-19-58-39.6c-5.3-9.6-11.3-20.9-18.1-30.3
		c-7-13.9-13.9-27.5-21.5-39.6c0,0,0-1.7,0-2.6c1.7,1.7,2.6,1.7,4.3,2.6c16.4,11.3,30.3,25.2,45,37.9c13.9,11.3,25.2,23.2,37.1,34.5
		c18.1,18.1,37.9,27.5,58.6,34.5c7,2.6,14.7,4.3,21.5,5.3c1.7,0,1.7,0,4.3,1.7c-1.7,1.7-1.7,1.7-2.6,1.7c-20.9,1.7-39.6,7-58,13.9
		c-18.1,4.3-34.5,8.5-51.8,9.6c-31.8,4.3-64.6,1.7-95.1-13.9c-27.5-14.7-50.9-32.8-68.2-61.4c-1.7-1.7-1.7-2.6-1.7-4.3l1.7,1.7
		c16.4,18.1,37.1,25.8,58,31.8c16.4,4.3,32.8,5.3,49.2,7c30.3,1.7,61.4,2.6,90.8,11.3C1002,713.7,1004.6,713.7,1007.3,712
		C1007.3,713.7,1007.3,713.7,1007.3,712z"/>
	<path fill="#F4AE00" d="M1627,443.4c0-1.7,1.7-2.6,1.7-4.3c2.6-13.9,5.3-27.5,8.5-41.4c2.6-14.7,8.5-28.6,14.7-44.1
		c7-14.7,14.7-30.3,19-46.7c5.3-19,8.5-39.6,5.3-58.6c0,0,0-1.7,1.7-1.7c0,1.7,1.7,2.6,1.7,4.3c5.3,13.9,8.5,27.5,11.3,44.1
		c2.6,28.6,0,56.1-8.5,84.6c-2.6,7-5.3,16.4-8.5,23.2c-2.6,8.5-7,14.7-13.9,21.5c-13.9,16.4-25.2,32.8-37.9,49.2
		c-2.6,4.3-7,9.6-9.6,14.7c-1.7,1.7-1.7,2.6-2.6,2.6c0-4.3,0-8.5,0-13.9c1.7-16.4,1.7-30.3-2.6-46.7c-2.6-8.5-5.3-18.1-8.5-27.5
		c-8.5-27.5-16.4-56.1-21.5-86.3c-1.7-9.6-2.6-21.5-2.6-31.8c0-4.3,0-9.6,0-16.4c1.7,1.7,1.7,1.7,1.7,1.7
		c4.3,16.4,11.3,30.3,20.9,45c7,13.9,16.4,25.8,23.2,39.6c9.6,19,13.9,39.6,11.3,61.4c0,7-2.6,13.9-4.3,20.9
		C1625.5,441,1625.5,441.7,1627,443.4C1625.5,443.4,1625.5,443.4,1627,443.4z"/>
	<path fill="#F4AE00" d="M1543.4,177.8l1.7,1.7c7,11.3,16.4,20.9,25.2,28.6c9.6,9.6,21.5,19,31.8,28.6
		c13.9,13.9,23.2,28.6,27.5,46.7c1.7,5.3,2.6,11.3,2.6,18.1c0,1.7,0,1.7,1.7,2.6c0-5.3-1.7-11.3-1.7-18.1
		c-1.7-18.1-2.6-32.8-1.7-50.9c1.7-18.1,2.6-32.8,4.3-49.2s0-31.8-4.3-48.4c-1.7-4.3-4.3-9.6-7-14.7c0-1.7-1.7-1.7-1.7-4.3
		c2.6,1.7,5.3,2.6,7,4.3c13.9,18.1,25.2,34.5,31.8,56.1c13.9,41.4,11.3,79.5-4.3,119.2c-8.5,19-13.9,41.4-18.1,61.4
		c0,1.7,0,1.7,0,2.6c0,0,0,0-1.7,1.7c0-1.7-1.7-1.7-1.7-1.7c-2.6-19-9.6-34.5-20.9-49.2c-8.5-13.9-19-25.8-28.6-41.4
		c-9.6-13.9-20.9-27.5-27.5-44.1C1550.3,212.1,1545.1,195.7,1543.4,177.8z"/>
	<path fill="#F4AE00" d="M743.8,369.2c0-2.6-1.7-5.3-1.7-8.5c-2.6-16.4-7-30.3-13.9-45c-5.3-14.7-11.3-28.6-14.7-44.1
		c-3.4-15.6-4.3-28.6-4.3-45c1.7-13.9,2.6-27.5,7-41.4c7-21.5,19-41.4,32.8-58.6l1.7-1.7c0,0,1.7,0,1.7-1.7c0,1.7,0,1.7,0,2.6
		c-8.5,14.7-11.3,30.3-11.3,48.4c0,14.7,1.7,27.5,2.6,41.4c1.7,13.9,2.6,25.8,4.3,41.4c0,7,0,14.7-1.7,21.5c0,9.6-1.7,21.5-2.6,31.8
		c0,0,0,1.7,1.7,1.7c0-1.7,1.7-2.6,1.7-4.3c1.7-5.3,1.7-11.3,2.6-18.1c2.6-13.9,9.6-25.8,19-37.1c9.6-13.9,21.5-25.2,34.5-37.1
		c4.3-2.6,7-7,11.3-9.6c5.3-5.3,11.3-11.3,14.7-19c0-1.7,1.7-1.7,2.6-4.3c0,4.3,0,7-1.7,9.6c-5.3,27.5-18.1,51.8-32.8,75.2
		c-8.5,13.9-18.1,25.2-25.8,37.9c-8.5,13.9-16.4,25.2-21.5,39.6c-2.6,5.3-4.3,13.9-5.3,19C745.6,366.6,745.6,368.6,743.8,369.2
		C745.6,369.2,743.8,369.2,743.8,369.2z"/>
	<path fill="#F4AE00" d="M1599.5,187.2c-2.6-8.5-5.3-16.4-8.5-25.2c-5.3-19-9.6-39.6-16.4-58c-4.3-14.7-9.6-28.6-20.9-39.6
		c-2.6-2.6-7-7-11.3-9.6c1.7-1.7,2.6,0,4.3,0c9.6,2.6,20.9,8.5,28.6,16.4c19,16.4,31.8,34.5,37.9,58.6c2.6,14.7,4.3,28.6,2.6,44.1
		c0,14.7-1.7,28.6-1.7,45c0,5.3,1.7,13.9,1.7,19c0,1.7,0,2.6,0,4.3c-1.7,0-1.7-1.7-1.7-1.7c-9.6-19-25.8-32.8-42.4-46.7
		c-11.3-8.5-21.5-18.1-32.8-25.8c-13.9-9.6-23.2-21.5-30.3-37.9c-7-13.9-9.6-27.5-13.9-42.4c0,0,0,0,0-1.7l1.7,1.7
		c7,14.7,18.1,25.8,31.8,37.1c9.6,7,20.9,14.7,30.3,21.5C1576.3,156,1589.9,169,1599.5,187.2
		C1598.6,187.2,1599.5,187.2,1599.5,187.2C1599.5,189.7,1599.5,189.7,1599.5,187.2z"/>
	<path fill="#F4AE00" d="M759.4,247.7c0-4.3,0-7,0-11.3c1.7-14.7,0-27.5-1.7-42.4c-1.7-19-1.7-37.9,1.7-56.1
		c4.3-25.8,19-46.7,41.4-62.9c7-5.3,18.1-9.6,25.8-13.9h1.7v1.7c-16.4,11.3-25.2,28.6-28.6,48.4c-2.6,11.3-5.3,25.2-7,37.1
		c-2.6,14.7-7,27.5-13.9,42.4c-1.7,2.6-1.7,5.3-2.6,9.6l1.7-1.7c9.6-20.9,25.2-37.1,44.1-49.2c9.6-7,20.9-14.7,30.3-23.2
		s19-19,25.2-31.8c0,0,0-1.7,1.7-1.7c1.7,1.7,1.7,2.6,0,4.3c-1.7,16.4-7,31.8-16.4,45c-9.6,14.7-21.5,27.5-37.1,39.6
		c-7,5.3-14.7,13.9-23.2,19c-16.4,13.9-30.3,27.5-41.4,45C762.2,246,760.5,247.7,759.4,247.7C760.5,247.7,759.4,247.7,759.4,247.7z"
		/>
	<path fill="#F4AE00" d="M926.1,11.7c-1.7,1.7-1.7,1.7-1.7,1.7c-18.1,14.7-30.3,31.8-44.1,50.9c-2.6,4.3-7,8.5-9.6,14.7
		c-9.6,16.4-23.2,27.5-37.1,39.6c-9.6,8.5-20.9,18.1-28.6,25.2c0,0-1.7,0-1.7,1.7v-1.7c2.6-11.3,7-23.2,9.6-34.5
		c8.5-32.8,28.6-58,58.6-74.2c16.4-8.5,31.8-14.7,49.2-21.5C923.5,12.8,925.3,11.7,926.1,11.7z"/>
	<path fill="#F4AE00" d="M1165.3,588.6c-1.7,0-2.6-1.7-4.3-1.7c-31.8,0-62.9,0-95.1,0c-1.7,0-2.6,0-4.3,1.7c-1.7,0-1.7,1.7-1.7,2.6
		c0,1.7,1.7,1.7,1.7,2.6c1.7,0,2.6,0,2.6,0h1.7c16.4,0,30.3,0,46.7,0c16.4,0,30.3,0,46.7,0c1.7,0,2.6,0,4.3,0s1.7-1.7,2.6-2.6
		C1166.1,590.5,1166.1,588.6,1165.3,588.6z"/>
	<path fill="#F4AE00" d="M1111.6,567c8.5,0,18.1,0,25.2,0c1.7,0,2.6,0,4.3,0c1.7,0,1.7,1.7,1.7,2.6c0,1.7-1.7,1.7-2.6,2.6
		c-1.7,0-2.6,0-4.3,0c-18.1,0-32.8,0-50.9,0c-1.7,0-2.6,0-4.3,0s-2.6-1.7-2.6-2.6c0-1.7,1.7-2.6,2.6-2.6c1.7,0,2.6,0,4.3,0
		C1093.7,567,1102.4,567,1111.6,567z"/>
	<path fill="#F4AE00" d="M1072.8,534.2c7,0,14.7,0,21.5,0c1.7,0,1.7,0,2.6,0c2.6,0,4.3,1.7,4.3,2.6s-1.7,2.6-4.3,2.6
		c-16.4,0-32.8,0-49.2,0c-1.7,0-1.7,0-2.6,0s-1.7-1.7-1.7-2.6s1.7-2.6,1.7-2.6c1.7,0,2.6,0,4.3,0
		C1056.6,534.2,1065.1,534.2,1072.8,534.2z"/>
	<path fill="#F4AE00" d="M1256.1,583.4c7,0,16.4,0,23.2,0c1.7,0,2.6,0,4.3,0s1.7,1.7,2.6,2.6c0,1.7,0,2.6-1.7,2.6s-2.6,1.9-2.6,1.9
		c-16.4,0-31.8,0-48.4,0c-1.7,0-2.6,0-2.6,0c-1.7,0-2.6-1.7-1.7-2.6c0-1.7,1.7-1.7,2.6-2.6c1.7,0,1.7,0,2.6,0
		C1238.6,583.4,1247.3,583.4,1256.1,583.4z"/>
	<path fill="#F4AE00" d="M1200.7,623.3c-5.3,0-13.9,0-19,0c-1.7,0-2.6,0-4.3,0s-1.7-1.7-1.7-2.6c0-1.7,1.7-1.7,1.7-2.6
		c1.7,0,1.7,0,2.6,0c13.9,0,25.2,0,37.9,0c1.7,0,2.6,0,4.3,0s2.6,0,2.6,2.6c0,1.7-1.7,2.6-2.6,2.6c-1.7,0-1.7,0-2.6,0
		C1214.5,623.3,1207.7,623.3,1200.7,623.3L1200.7,623.3z"/>
	<path fill="#F4AE00" d="M1173,554.9c-5.3,0-11.3,0-19,0c-1.7,0-1.7,0-2.6,0c-1.7,0-2.6,0-4.3-2.6c0-1.7,1.7-2.6,2.6-2.6
		c1.7,0,2.6,0,4.3,0c11.3,0,23.2,0,34.5,0c1.7,0,2.6,0,4.3,0c1.7,0,2.6,1.7,2.6,2.6s-1.7,2.6-2.6,2.6c-2.6,0-5.3,0-9.6,0
		C1182.5,554.9,1177.2,554.9,1173,554.9z"/>
	<path fill="#F4AE00" d="M1292.1,573.8c-5.3,0-11.3,0-16.4,0c-1.7,0-1.7,0-2.6,0c-2.6,0-4.3-1.7-4.3-2.6c0-1.7,1.7-2.6,2.6-2.6
		c1.7,0,1.7,0,2.6,0c11.3,0,23.2,0,34.5,0c1.7,0,2.6,0,4.3,0s2.6,1.7,2.6,2.6c0,1.7-1.7,2.6-2.6,2.6c-1.7,0-1.7,0-2.6,0
		C1306,573.8,1299.1,573.8,1292.1,573.8z"/>
	<path fill="#F4AE00" d="M1324.3,446.2c5.3,0,11.3,0,18.1,0c1.7,0,2.6,0,2.6,0c1.7,0,1.7,1.7,2.6,2.6c0,1.7,0,2.6-1.7,2.6
		s-2.6,0-4.3,0c-11.3,0-23.2,0-37.1,0c-1.7,0-2.6,0-2.6,0c-1.7,0-2.6-1.7-2.6-2.6c0-1.7,1.7-1.7,2.6-2.6c1.7,0,1.7,0,2.6,0
		C1311.9,446.2,1317.3,446.2,1324.3,446.2z"/>
	<path fill="#F4AE00" d="M1324.3,471.1c4.3,0,9.6,0,14.7,0c1.7,0,2.6,0,2.6,0c1.7,0,2.6,1.7,2.6,2.6c0,1.7-1.7,2.6-2.6,2.6
		c-1.7,0-1.7,0-2.6,0c-9.6,0-20.9,0-30.3,0c-1.7,0-2.6,0-4.3,0s-1.7-1.7-1.7-2.6c0-1.7,1.7-1.7,2.6-2.6c1.7,0,1.7,0,2.6,0
		C1313,471.1,1317.3,471.1,1324.3,471.1z"/>
	<path fill="#F4AE00" d="M1285.3,495.4c4.3,0,9.6,0,14.7,0c1.7,0,1.7,0,2.6,0c1.7,0,2.6,1.7,2.6,2.6c0,1.7-1.7,2.6-1.7,2.6
		c-1.7,0-2.6,1.7-4.3,1.7c-9.6,0-20.9,0-30.3,0c-1.7,0-1.7,0-2.6,0c-1.7,0-2.6-1.7-2.6-4.3c0-1.7,1.7-2.6,2.6-2.6
		C1273.1,495.4,1280.2,495.4,1285.3,495.4L1285.3,495.4z"/>
	<path fill="#F4AE00" d="M1145.5,610.9c-4.3,0-9.6,0-14.7,0c-1.7,0-2.6,0-2.6,0c-1.7,0-1.7-1.7-1.7-2.6c0-0.9,1.7-3.4,1.7-3.4
		c1.7,0,2.6,0,4.3,0c9.6,0,19,0,28.6,0c1.7,0,1.7,0,2.6,0c1.7,0,2.6,1.7,2.6,2.6s-1.7,2.6-2.6,2.6c-1.7,0-2.6,0-4.3,0
		C1154,610.9,1149.7,610.9,1145.5,610.9z"/>
	<path fill="#F4AE00" d="M1317.3,539.3c4.3,0,9.6,0,14.7,0c1.7,0,2.6,0,2.6,0c1.7,0,2.6,1.7,2.6,2.6c0,1.7-1.7,2.6-2.6,2.6
		c-1.7,0-1.7,0-2.6,0c-8.5,0-19,0-27.5,0c-4.3,0-5.3-1.7-5.3-2.6c0-1.7,1.7-2.6,5.3-2.6C1308.7,539.3,1313,539.3,1317.3,539.3z"/>
	<path fill="#F4AE00" d="M1051.2,461.7c-4.3,0-7,0-11.3,0c-1.7,0-2.6,0-4.3,0c-1.7,0-1.7-1.7-1.7-2.6c0-1.7,1.7-2.6,1.7-2.6
		c1.7,0,2.6,0,4.3,0c7,0,16.4,0,23.2,0c1.7,0,2.6,0,4.3,0c1.7,0,2.6,1.7,2.6,2.6c0,1.7-1.7,2.6-2.6,2.6c-1.7,0-2.6,0-4.3,0
		C1058.3,461.7,1055.7,461.7,1051.2,461.7z"/>
	<path fill="#F4AE00" d="M1217.1,592.2c2.6,0,7,0,9.6,0c1.7,0,4.3,0,4.3,2.6c0,1.7-1.7,2.6-4.3,2.6c-7,0-14.7,0-21.5,0
		c-2.6,0-4.3-1.7-4.3-2.6c0-1.7,1.7-2.6,4.3-2.6C1210,592.2,1212.6,592.2,1217.1,592.2z"/>
	<path fill="#F4AE00" d="M1054,511c-2.6,0-5.3,0-9.6,0c-1.7,0-4.3,0-4.3-2.6s1.7-2.6,4.3-2.6c5.3,0,11.3,0,19,0
		c1.7,0,4.3,1.7,4.3,2.6c0,1.7-1.7,2.6-4.3,2.6C1060.8,511,1056.6,511,1054,511z"/>
	<path fill="#F4AE00" d="M1048.7,482.4c-2.6,0-5.3,0-8.5,0c-2.6,0-2.6-1.7-2.6-2.6c0-1.7,1.7-2.6,2.6-2.6c5.3,0,11.3,0,16.4,0
		c1.7,0,2.6,1.7,2.6,2.6c0,1.7-1.7,2.6-2.6,2.6C1055.7,482.4,1051.2,482.4,1048.7,482.4z"/>
	<path fill="#F4AE00" d="M1235.2,458.9c-2.6,0-5.3,0-8.5,0c-1.7,0-2.6,0-2.6-2.6c0-2.6,1.7-2.6,2.6-2.6c5.3,0,11.3,0,18.1,0
		c1.7,0,2.6,1.7,2.6,2.6c0,1.7-1.7,2.6-4.3,2.6C1240.5,458.9,1237.8,458.9,1235.2,458.9L1235.2,458.9z"/>
	<path fill="#F4AE00" d="M1119.4,552.3c2.6,0,5.3,0,8.5,0c1.7,0,2.6,0,2.6,2.6c0,1.7-1.7,2.6-2.6,2.6c-5.3,0-11.3,0-19,0
		c-1.7,0-2.6-1.7-2.6-2.6c0-1.7,1.7-2.6,2.6-2.6C1114.3,552.3,1116.9,552.3,1119.4,552.3L1119.4,552.3z"/>
	<path fill="#F4AE00" d="M1259.3,480.5c1.7,0,2.6,0,4.3,0s1.7,1.7,2.6,2.6c0,1.7,0,2.6-1.7,2.6h-1.7c-5.3,0-9.6,1.7-16.4,1.7
		c-2.6,0-4.3-1.7-4.3-2.6c0-2.6,1.7-2.6,4.3-2.6C1252.5,480.5,1256.7,480.5,1259.3,480.5z"/>
	<path fill="#F4AE00" d="M1109.2,490.1c-2.6,0-5.3,0-7,0s-4.3,0-4.3-2.6c0-1.7,1.7-2.6,4.3-2.6c5.3,0,9.6,0,16.4,0
		c1.7,0,4.3,0,4.3,2.6c0,2.6-1.7,2.6-4.3,2.6C1114.3,490.1,1111.6,490.1,1109.2,490.1L1109.2,490.1z"/>
	<path fill="#F4AE00" d="M1288.7,525.5c-2.6,0-4.3,0-7,0c-1.7,0-2.6,0-2.6-2.6c0-1.7,1.7-2.6,2.6-2.6c4.3,0,9.6,0,14.7,0
		c1.7,0,2.6,1.7,2.6,2.6c0,1.7-1.7,2.6-2.6,2.6C1293.8,525.5,1291.3,525.5,1288.7,525.5z"/>
	<path fill="#F4AE00" d="M1186.2,348.5c1.7,0,4.3,0,4.3,2.6c0,2.6-1.7,2.6-2.6,2.6c-2.6,0-4.3-1.7-4.3-2.6
		C1182.5,350.2,1184.3,348.5,1186.2,348.5z"/>
	<path fill="#F4AE00" d="M1170.6,354.7c-1.7,0-2.6,0-4.3-2.6c0-1.7,1.7-2.6,4.3-2.6c1.7,0,2.6,0,2.6,2.6
		C1173.2,354.7,1172.1,354.7,1170.6,354.7z"/>
	<path fill="#F4AE00" d="M1128.8,902.8c-2.6,1.7-4.3,4.3-8.5,4.3c0-1.7,0-1.7,0-2.6c-1.7,1.7-2.6,1.7-4.3,2.6
		c-2.6,1.7-5.3,1.7-5.3-2.6c-1.7-7,4.3-18.1,11.3-18.1c1.7,0,2.6-1.7,5.3-1.7c-1.7,5.3-1.7,11.3-2.6,18.1c2.6-1.7,5.3-1.7,8.5-2.6
		c0,1.7,0,1.7,1.7,1.7c1.7,2.6,2.6,2.6,4.3,1.7c1.7-1.7,2.6-2.6,1.7-5.3c-1.7-1.7-2.6-2.6-2.6-2.6c-1.7-2.6-1.7-5.3,0-7
		c1.7-2.6,5.3-2.6,8.5-2.6c1.7,0,2.6,1.7,1.7,2.6c0,0-1.7,0-2.6,0l-1.7-1.7c-1.7,0-1.7,0-2.6,0c0,0-1.7,1.7,0,2.6
		c0,1.7,1.7,1.7,2.6,2.6c4.3,4.3,4.3,7,1.7,9.6C1139.5,908.1,1133.3,907.2,1128.8,902.8z M1116,904.5c5.3-1.7,7-5.3,7-14.7
		C1116,890.8,1112.6,895.9,1116,904.5z"/>
	<path fill="#F4AE00" d="M1034.8,891.7c-7,1.7-8.5,2.6-7,8.5c-2.6,1.7-4.3,1.7-4.3-1.7c0-2.6,1.7-7,4.3-8.5c2.6-1.7,5.3-1.7,9.6-2.6
		c0,1.7,0,2.6,0,4.3c0,2.6-1.7,5.3-1.7,8.5c0,3.4,0,5.3,0,7c1.7,5.3,5.3,7,9.6,4.3c4.3-2.6,5.3-8.5,7-13.9s1.7-9.6-1.7-14.7v-2.6
		c1.7-1.7,2.6,0,2.6,1.7c1.7,1.7,1.7,4.3,1.7,5.3c1.7,7,0,14.7-4.3,20.9c-1.7,4.3-4.3,7-8.5,8.5c-5.3,2.6-11.3,0-11.3-7
		c0-2.6,0-7,0-9.6C1033.1,897.6,1033.1,895.1,1034.8,891.7z"/>
	<path fill="#F4AE00" d="M1324.3,919.4c1.7,1.7,2.6,1.7,4.3,2.6l0,0c-2.6,0-7-1.7-9.6-1.7c1.7-2.6,2.6-4.3,4.3-7
		c2.6-4.3,4.3-9.6,5.3-16.4c0-1.7,1.7-2.6,1.7-4.3c-1.7,1.7-2.6,1.7-4.3,1.7c1.7-4.3,4.3-4.3,8.5-4.3c0,1.7,0,2.6,0,2.6
		c1.7-1.7,4.3-1.7,5.3-2.6c2.6-1.7,4.3,1.7,4.3,4.3c0,5.3-5.3,13.9-11.3,14.7c-1.7,0-4.3,0-5.3,0
		C1325.8,915.1,1325.8,916.6,1324.3,919.4z M1328.6,909.8c2.6,2.6,4.3,2.6,7,0c1.7-2.6,2.6-5.3,4.3-8.5c0-1.7,0-2.6-1.7-2.6
		c0,0-1.7,0-2.6,0C1330.9,898.5,1329.2,904.5,1328.6,909.8z"/>
	<path fill="#F4AE00" d="M1077.2,909.8c1.7-1.7,2.6-2.6,4.3-2.6c0,2.6-1.7,4.3-4.3,5.3c-1.7,1.7-2.6,0-2.6-1.7c0-2.6,0-4.3,0-7
		c0-1.7,0-4.3,1.7-7c-4.3,1.7-5.3,4.3-7,8.5c0,2.6,0,4.3-1.7,7c0,2.6-1.7,2.6-4.3,1.7c0-5.3,1.7-11.3,1.7-18.1
		c-1.7,1.7-2.6,1.7-4.3,2.6c1.7-4.3,2.6-5.3,7-5.3c0,1.7,0,1.7,0,2.6h1.7c1.7-1.7,2.6-2.6,4.3-4.3c2.6-1.7,4.3,0,4.3,2.6
		s0,4.3-1.7,7C1077.2,904.5,1077.2,907.2,1077.2,909.8z"/>
	<path fill="#F4AE00" d="M1325.8,884.6c-1.7,2.6-1.7,4.3-2.6,7c0,0,0,0-1.7,0c0-1.7,0-1.7,0-2.6c0-2.6-1.7-4.3-4.3-4.3
		c-4.3,0-7,4.3-4.3,8.5c1.7,1.7,2.6,4.3,4.3,5.3c1.7,2.6,1.7,5.3-1.7,8.5c-2.6,4.3-11.3,5.3-16.4,2.6c-1.7-1.7-2.6-1.7-2.6-2.6
		c-1.7-1.7,0-2.6,1.7-4.3c1.7,0,1.7,1.7,2.6,1.7c1.7,4.3,4.3,5.3,8.5,2.6c4.3-1.7,5.3-5.3,2.6-9.6c-1.7-1.7-2.6-2.6-2.6-4.3
		c-2.6-4.3-1.7-7,1.7-9.6C1314.7,881.2,1319.8,881.2,1325.8,884.6z"/>
	<path fill="#F4AE00" d="M1170.6,877c-1.7,0-2.6,1.7-5.3,1.7c-2.6,1.7-2.6,2.6-2.6,5.3c0,1.7,0,2.6-1.7,2.6l-1.7-1.7
		c-1.7-2.6,1.7-5.3,4.3-8.5c2.6-1.7,7-1.7,11.3-1.7c0,1.7,0,1.7-1.7,2.6c-1.7,5.3-2.6,11.3-4.3,19c-1.7,2.6-1.7,5.3-2.6,7
		c-1.7,2.6-4.3,4.3-7,5.3c-1.7,0-4.3,0-5.3-1.7v0.9h1.7h1.7c4.3,2.6,5.3,1.7,7-2.6C1166.1,895.9,1168.7,888.3,1170.6,877
		C1170.6,878.7,1170.6,877,1170.6,877z"/>
	<path fill="#F4AE00" d="M1196.4,884.6c-1.7,4.3-2.6,9.6-2.6,14.7c0,0,0,0,0,1.7c1.7,0,2.6-1.7,4.3-1.7l0,0
		c-1.7,1.7-2.6,2.6-2.6,2.6c-2.6,2.6-4.3,1.7-5.3-2.6c-1.7,1.7-2.6,2.6-4.3,2.6s-2.6,1.7-4.3,0c-1.7,0-1.7-2.6-1.7-4.3
		c0-2.6,1.7-5.3,1.7-7c0-1.7,0-2.6,1.7-5.3c-1.7,1.7-2.6,1.7-4.3,2.6c1.7-2.6,4.3-4.3,7-5.3c1.7,5.3-2.6,11.3-1.7,18.1
		c4.3-1.7,5.3-4.3,7-7c0-2.6,1.7-4.3,1.7-7C1192.1,884.6,1193.8,884,1196.4,884.6z"/>
	<path fill="#F4AE00" d="M1288.7,888.3c-1.7,5.3-4.3,9.6-5.3,16.4c1.7,0,2.6-1.7,5.3-1.7c-2.6,2.6-4.3,4.3-7,4.3
		c-2.8,0-2.6-1.7-2.6-2.6c-1.7,1.7-2.6,1.7-4.3,2.6c-2.6,1.7-4.3,0-4.3-2.6c0-1.7,0-2.6,0-4.3c2.6-7,8.5-13.9,16.4-11.3
		C1285.3,888.3,1287,888.3,1288.7,888.3z M1282.5,890.8c-2.6-1.7-5.3,0-7,1.7c-1.7,2.6-4.3,5.3-2.6,8.5c0,1.7,1.7,2.6,2.6,1.7
		c1.7-1.7,2.6-1.7,4.3-2.6C1281.9,895.9,1282.5,893.4,1282.5,890.8z"/>
	<path fill="#F4AE00" d="M1356.9,912.4c-2.6,1.7-5.3,4.3-9.6,2.6c-2.6,0-4.3-1.7-4.3-4.3c1.7-5.3,4.3-9.6,8.5-13.9
		c1.7,0,2.6-1.7,4.3-1.7s2.6,1.7,2.6,1.7c0,1.7,0,2.6-1.7,4.3c-1.7,1.7-2.6,1.7-2.6,1.7c-1.7,0-2.6,1.7-4.3,1.7
		c-2.6,1.7-4.3,2.6-2.6,4.3c1.7,1.7,2.6,1.7,4.3,1.7C1354.4,911.5,1355.2,911.5,1356.9,912.4
		C1356.9,911.5,1356.9,911.5,1356.9,912.4z M1350.1,904.5L1350.1,904.5c2.6,0,4.3,0,5.3-1.7l1.7-2.6c-1.7-1.7-2.6-1.7-2.6,0
		C1351.8,900.2,1350.1,901.9,1350.1,904.5z"/>
	<path fill="#F4AE00" d="M1097.9,909.8c-1.7-5.3,0-11.3,0-18.1h-1.7c0,0,0,0-1.7-1.7c1.7-1.7,2.6-1.7,4.3-1.7c0-1.7,0-5.3,4.3-5.3
		c0,1.7,0,4.3,0,5.3c1.7,0,2.6,0,4.3,0c-1.7,2.6-2.6,1.7-4.3,2.6c-1.7,5.3-1.7,8.5-1.7,13.9c1.7,0,2.6-1.7,2.6-1.7
		c1.7,0,1.7-1.7,2.6-1.7C1104.7,907.2,1103,909.8,1097.9,909.8z"/>
	<path fill="#F4AE00" d="M1254.2,879.5c0,1.7-1.7,2.6-1.7,5.3c1.7,0,2.6,0,4.3,1.7c-1.7,1.7-2.6,1.7-5.3,1.7
		c-1.7,4.3-2.6,7-2.6,13.9c2.6-1.7,4.3-1.7,7-2.6c-1.7,2.6-4.3,4.3-7,5.3c-2.6,0-4.3,0-2.6-2.6c0-2.6,1.7-5.3,1.7-8.5
		c0-1.7,1.7-2.6,1.7-4.3c-1.7,0-1.7-1.7-2.6-1.7v-1.7c1.7,0,4.3,0,4.3-2.6C1249.1,879.5,1249.7,879.5,1254.2,879.5z"/>
	<path fill="#F4AE00" d="M1222.2,888.3c-1.7,4.3-2.6,8.5-2.6,13.9c2.6-1.7,4.3-1.7,7-2.6c-2.6,4.3-7,5.3-11.3,5.3
		c-1.7-5.3,2.6-9.6,2.6-16.4h-1.7c0,0,0,0-1.7-1.7l1.7-1.7c1.7,0,2.6,0,4.3-2.6c0-2.6,1.7-2.6,4.3-2.6c0,1.7,0,4.3-1.7,5.3
		c1.7,0,2.6,1.7,4.3,1.7c0,0,0,0,0,1.7C1228.2,888.3,1225.6,888.3,1222.2,888.3z"/>
	<path fill="#F4AE00" d="M1204.9,904.5c-1.7-1.7-2.6-1.7-4.3-2.6v-3.4c1.7-1.7,1.7,0,2.6,1.7c1.7,2.6,2.6,2.6,4.3,1.7
		c1.7-1.7,1.7-2.6,0-4.3s-2.6-2.3-2.6-4.3c-1.7-2.6-1.7-5.3,1.7-7c2.6-1.7,5.3-1.7,7,0c0,0,0,1.7,0,2.6c-1.7,0-1.7,0-2.6,0
		c-1.7-1.7-2.6-2.6-4.3-1.7c-1.7,1.7,0,4.3,1.7,5.3c0,0,0,0,1.7,1.7c1.7,1.7,2.6,4.3,1.7,7C1210,902.8,1207.7,902.8,1204.9,904.5z"
		/>
	<path fill="#F4AE00" d="M1363.7,918.3c0,0-2.6,0-4.3-1.7c-1.7,0-1.7-2.6-1.7-2.6l1.7-1.7c0,0,1.7,0,1.7,1.7l0,0
		c1.7,2.6,1.7,4.3,4.3,2.6c1.7-1.7,2.6-2.6,1.7-5.3c0-1.7-1.7-2.6-1.7-4.3c-1.7-2.6,0-5.3,2.6-5.3c2.6-1.7,7-1.7,8.5,1.7
		c0,0,0,1.7,0,2.6c-1.7,0-1.7,0-2.6,0l0,0c-1.7-1.7-1.7-2.6-4.3-1.7c-1.7,1.7,0,2.6,0,4.3s1.7,1.7,1.7,2.6
		C1375,914.1,1372.5,918.3,1363.7,918.3z"/>
	<path fill="#F4AE00" d="M1089.4,908.1c1.7-1.7,2.6-1.7,4.3-2.6c0,2.6-2.6,5.3-5.3,5.3c-2.6,0-2.6-1.7-2.6-2.6c0-2.6,1.7-7,1.7-9.6
		c0-1.7,0-2.6,0-4.3c-1.7,1.7-2.6,1.7-4.3,2.6c1.7-4.3,2.6-5.3,7-5.3C1092.8,895.9,1089.4,901.9,1089.4,908.1z"/>
	<path fill="#F4AE00" d="M1263.8,888.9c-1.7,1.7-2.6,1.7-4.3,1.7c1.7-4.3,4.3-5.3,8.5-4.3c-1.7,5.3-2.6,9.6-5.3,16.4
		c2.6-1.7,4.3-1.7,4.3-2.6c0,0,0,1.7,1.7,1.7c-1.7,0-1.7,1.7-2.6,1.7c-1.7,1.7-4.3,2.6-5.3,1.7c-2.6-1.7,0-4.3,0-5.3
		C1261,895.9,1262.1,893.4,1263.8,888.9z"/>
	<path fill="#F4AE00" d="M1236.1,888.3c-1.7,1.7-2.6,1.7-4.3,2.6c2.6-4.3,4.3-5.3,8.5-4.3c-1.7,5.3-2.6,9.6-4.3,16.4
		c1.7-1.7,2.6-1.7,5.3-2.6c-1.7,2.6-4.3,4.3-5.3,5.3c-1.7,0-2.6,0-2.6-2.6c0-1.7,0-4.3,1.7-5.3
		C1233.5,893.4,1235.2,890.8,1236.1,888.3z"/>
	<path fill="#F4AE00" d="M1272.3,878.7c-1.7,1.7-1.7,1.7-2.6,1.7l-1.7-1.7c1.7,0,1.7-1.7,2.6-1.7
		C1268.9,875.3,1270.6,877,1272.3,878.7z"/>
	<path fill="#F4AE00" d="M1093.7,881.2c-1.7,1.7-1.7,1.7-2.6,2.6h-1.7c0-1.7,1.7-1.7,2.6-2.6
		C1092.8,879.5,1092.8,879.5,1093.7,881.2z"/>
	<path fill="#F4AE00" d="M1242,874.4c1.7,1.7,1.7,1.7,1.7,2.6c0,1.7-1.7,2.6-2.6,2.6l-1.7-1.7C1238.6,875.3,1240.5,875.3,1242,874.4
		z"/>
	<g>
		<path fill="#F4AE00" d="M1191.1,665.3c-16.4-25.8-75.2-41.4-75.2-42.4l0,0c-116.6-37.9-102.7-121.9-102.7-127.9
			c0-2.6,13.9-95.1,20.9-156.3c5.3-58-30.3-91.4-30.3-91.4l-4.3-4.3l84.6-71.6l2.6,2.6c16.4,14.7,37.1,21.5,56.1,21.5
			c19,0,37.1-5.3,49.2-19l2.6-2.6l7,5.3c11.3,9.6,25.8,16.4,44.1,16.4c20.9,0,41.4-8.5,56.1-23.2l0,0l7-5.3l76.7,75.2l-4.3,4.1
			c0,0-37.1,32.8-30.3,91.4c5.3,61.4,19,152,20.9,156.3c1.7,4.3,13.9,90.8-102.7,127.9l0,0c0,0-55.2,14.7-71.6,41.4l-2.6,4.3
			 M1118.6,615.4c4.3,1.7,55.2,14.7,76.7,39.6c20.9-25.2,68.2-37.9,71.6-37.9c111.3-37.1,97.6-112.3,95.7-116.6l0,0
			c0-1.7-13.9-95.1-20.9-156.3c-5.3-53.5,20.9-88,30.3-97.6l-64.6-61.4c-18.1,16.4-41.4,25.2-64.6,25.2c-19,0-37.1-5.3-49.2-18.1
			c-14.7,11.3-32.8,18.1-53.5,18.1c-21.5,0-44.1-7-61.4-21.5l-69.7,57.8c9.6,9.6,34.5,44.1,30.3,95.7
			c-5.3,61.4-20.9,153.7-20.9,156.3l0,0C1021.2,502.2,1007.3,579.2,1118.6,615.4z"/>
	</g>
	<g>
		<path fill="#F4AE00" d="M1358.6,435.7h-16.4l0,0c2.6,0,4.3,0,7,0c1.7,0,1.7-1.7,2.6-2.6c-1.7-1.7-1.7-2.6-2.6-2.6
			c-2.6,0-4.3,0-7,0c-1.7-5.3-1.7-11.3-2.6-18.1c1.7-1.7,2.6-1.7,5.3-2.6c1.7-1.7,2.6-2.6,1.7-4.3c0-1.7-2.6-1.7-4.3-1.7
			s-2.6,1.7-4.3,1.7c-1.7-1.7-1.7-2.6-2.6-5.3c2.6-2.6,5.3-4.3,9.6-7c1.7-1.7,2.6-2.6,1.7-4.3c-1.7-1.7-2.6-1.7-4.3,0
			c-2.6,1.7-5.3,4.3-8.5,5.3c-1.7-1.7-1.7-2.6-2.6-2.6c1.7-1.7,4.3-2.6,5.3-4.3c1.7-1.7,1.7-2.6,1.7-4.3c-1.7,0-2.6-1.7-4.3,0
			c-1.7,1.7-4.3,2.6-5.3,4.3c-1.7-1.7-1.7-1.7-2.6-2.6c2.6-1.7,5.3-4.3,8.5-5.3c1.7-1.7,2.6-2.6,1.7-4.3c-1.7-1.7-2.6-1.7-4.3,0
			c-2.6,1.7-5.3,4.3-8.5,5.3c-1.7-2.6-4.3-5.3-7-8.5c1.7-4.3,2.6-11.3,5.3-18.1c0-1.7,0-2.6,0-4.3c-1.7-1.7-4.3-1.7-4.3,1.7
			c-1.7,5.3-4.3,11.3-5.3,18.1c0,0,0,1.7-1.7,2.6c-5.3-1.7-11.3-1.7-18.1-2.6c0-5.3,0-11.3,1.7-16.4c0-1.7,0-1.7,0-2.6
			c0-1.7-1.7-1.7-2.6-2.6c-1.7,1.7-2.6,1.7-2.6,2.6c0,4.3-1.7,7-1.7,11.3c0,7,0,7-7,7c-2.6,0-5.3,0-7,1.7c-2.6,0-2.6,0-4.3-1.7
			c-1.7-2.6-2.6-7-4.3-9.6c-1.7-1.7-1.7-2.6-4.3-1.7c-1.7,1.7-1.7,2.6-1.7,4.3c1.7,4.3,4.3,7,5.3,11.3c-4.3,2.6-8.5,4.3-13.9,7
			c-1.7-2.6-4.3-4.3-5.3-7c-1.7-1.7-2.6-2.6-4.3-1.7c-1.7,1.7-1.7,2.6,0,4.3c1.7,2.6,4.3,4.3,5.3,7c-2.6,4.3-7,9.6-9.6,14.7
			c-4.3-1.7-8.5-4.3-13.9-5.3c-1.7,0-1.7-1.7-2.6-1.7c-1.7,0-2.6,1.7-4.3,1.7c0,1.7,1.7,2.6,1.7,2.6c4.3,2.6,8.5,4.3,13.9,5.3
			c1.7,0,1.7,1.7,2.6,1.7c-1.7,9.6-2.6,21.5-4.3,31.8H1203c0,1.7,0,4.3,0,5.3l0,0c23.2,0,45,0,68.2,0c4.3,0,8.5,0,11.3,0
			c1.7,0,4.3,0,5.3,1.7h4.3c1.7-2.6,4.3-1.7,7-1.7s7,0,9.6,0c4.3,0,8.5,0,11.3,1.7c1.7,0,2.6-1.7,4.3-1.7c9.6,0,21.5,0,31.8,0
			C1358.6,438.5,1358.6,436.8,1358.6,435.7z M1243.1,436.8h-7c0-13.9,1.7-25.8,7-37.9V436.8z M1263.8,436.8c-4.3,0-9.6,0-14.7,0
			v-34.5h17.3v8.5c0,8.5,0,16.4,0,25.2C1266.3,435.7,1266.3,436.8,1263.8,436.8z M1272.3,435.7L1272.3,435.7v-8.5l0,0V435.7z
			 M1289.6,435.7h-9.6c0-2.6,0-2.6,2.6-2.6s5.3,0,8.5,0v2.6H1289.6z M1300.9,435.7c-1.7,0-2.6,0-4.3,0c1.7-2.6,2.6-5.3,4.3-9.6
			V435.7z M1300.9,420.2H1280v-4.3h20.9V420.2z M1319.8,435.7h-16.4V421c2.6,0,7,0,9.6,0c1.7,0,1.7-1.7,2.6-2.6l0,0
			c0-2.6-1.7-5.3-1.7-8.5h-11.3v-7h16.4L1319.8,435.7L1319.8,435.7z M1317.3,395C1317.3,394.4,1317.3,394.4,1317.3,395
			c-1.7-2.6-2.6-4.3-2.6-5.3c-1.7,1.7-2.6,2.6-4.3,4.3c-1.7,0-4.3,1.7-5.3-1.7c0,0-1.7-1.7-2.6,0c-1.7,0-1.7,1.7-1.7,2.6
			c0,4.3,0,7,0,11.3c0,1.7,0,2.6,0,4.3h-9.6c0-2.6,0-5.3,0-8.5c0-1.7,0-4.3-2.6-4.3s-2.6,1.7-2.6,4.3c0,2.6,0,5.3,0,8.5h-11.3
			c0-5.3,0-11.3,0-16.4c0-1.7-1.7-2.6-2.6-2.6c-1.7,1.7-1.7,1.7-2.6,2.6v1.7h-5.3c-1.7-1.7-2.6-2.6-4.3-4.3l-2.6,2.6c0,0,0,0,0,1.7
			h-4.3c-1.7-2.6-1.7-5.3,2.6-7c1.7,0,2.6-2.6,4.3-4.3c11.3-7,25.2-8.5,37.9-7c5.3,1.7,9.6,1.7,16.4,2.6c1.7,0,1.7,0,2.6,1.7
			c2.6,4.3,7,7,11.3,11.3C1319.8,392.7,1319,394.4,1317.3,395z M1335.2,435.7h-8.5v-34.5C1333.7,406.3,1336.2,422.9,1335.2,435.7z"
			/>
		<path fill="#F4AE00" d="M1104.7,415l-1.7-1.7l0,0c-7-7-14.7-14.7-20.9-21.5c-1.7-1.7-2.6-2.6-2.6-4.3c-1.7-1.7-1.7-4.3-2.6-5.3
			c0,0,1.7,0,1.7-1.7c1.7,1.7,2.6,2.6,4.3,4.3c2.6,2.6,7,7,9.6,9.6c1.7,1.7,2.6,2.6,4.3,1.7c1.7-1.7,1.7-2.6,0-4.3
			c-5.3-5.3-11.3-13.9-19-19c0,0,0-1.7,0-2.6c0-4.3,0-8.5,0-13.9c0-1.7-1.7-1.7-2.6-2.6c-1.7,1.7-2.6,1.7-2.6,2.6c0,8.5,0,19,0,27.5
			c0,9.6,0,21.5,0,32.8h-7V415c1.7-1.7,1.7-1.7,2.6-2.6c-1.7,0-1.7-1.7-2.6-1.7c-1.7-1.7,8.5-2.6,0-4.3c0-1.7,1.7-1.7,1.7-2.6
			l1.7-1.7c-1.7,0-1.7-1.7-2.6-1.7h-1.7c4.3-2.6,4.3-2.6,0-5.3h1.7l1.7-1.7l-1.7-1.7c0,0-1.7,0-1.7-1.7l1.7-1.7l1.7-1.7l-1.7-1.7
			c-1.7-1.7-1.7-1.7-2.6-2.6c1.7,0,2.6,0,2.6,0l1.7-1.7l-1.7-1.7c0,0-1.7,0-1.7-1.7c0,0,0-1.7,1.7-1.7l1.7-1.7
			c-1.7,0-1.7-1.7-2.6-1.7v-9.6h1.7l1.7-1.7l-1.7-1.7c0,0-1.7,0-1.7-1.7c0,0,0,0,0-1.7c0,0,1.7-1.7,2.6-1.7c-1.7,0-1.7-1.7-2.6-1.7
			c0-1.7,1.7-1.7,1.7-2.6l1.7-1.7l-1.7-1.7l-1.7-1.7c1.7-1.7,2.6-1.7,2.6-2.6c-1.7,0-1.7-1.7-2.6-2.6c0-1.7,0-2.6,0-4.3
			c0-1.7,0-2.6-2.6-2.6c-2.6,0-2.6,1.7-2.6,2.6c0,1.7,0,2.6,0,4.3l0,0c-1.7,0-4.3,1.7-4.3,1.7c0,2.6,1.7,1.7,2.6,1.7l1.7,1.7
			c0,0,0,1.7-1.7,1.7h-1.7l-1.7,1.7l1.7,1.7c1.7,0,1.7,0,2.6,0v5.3h-1.7c-1.7,0-1.7,1.7-2.6,1.7c1.7,0,1.7,1.7,2.6,1.7
			c0,0,1.7,0,1.7,1.7c0,0,0,1.7-1.7,1.7s-2.6,1.7-2.6,1.7c1.7,0,2.6,1.7,4.3,1.7v9.6c0,0,0,0-1.7,0s-2.6,1.7-2.6,1.7
			c1.7,0,1.7,1.7,2.6,1.7c0,0,1.7,0,1.7,1.7l-1.7,1.7h-1.7l-1.7,1.7l1.7,1.7c1.7,0,1.7,0,2.6,0v2.6h-1.7c-1.7,0-1.7,1.7-2.6,1.7
			c1.7,0,1.7,1.7,2.6,1.7c0,0,1.7,0,1.7,1.7l-1.7,1.7c-1.7,0-1.7,1.7-2.6,1.7c1.7,0,1.7,1.7,2.6,1.7h1.7c0,0,0,0,0,1.7
			c-1.7,0-1.7,0-2.6,1.7c-1.7,0-1.7,1.7-1.7,1.7s1.7,1.7,2.6,1.7c0.9,0,1.7,0,2.6,1.7c0,0,0,0,0,1.7c0,0,0,0-1.7,0s-2.6,1.7-2.6,1.7
			c1.7,0,2.6,1.7,2.6,1.7c1.7,0,1.7,1.7,1.7,2.6c0,0-1.7,0-1.7,1.7c-1.7,0-4.3,1.7-4.3,1.7c0,2.6,1.7,1.7,2.6,1.7c0,0,1.7,0,1.7,1.7
			c-1.7,1.7-2.6,1.7-4.3,2.6c1.7,1.7,2.6,1.7,4.3,2.6v2.6h-8.5c1.7-4.3,1.7-4.3-2.6-5.3c0,0-1.7,0-1.7-1.7l1.7-1.7l1.7-1.7
			c-1.7,0-1.7-1.7-2.6-1.7c0-1.7-1.7-2.6,1.7-2.6l1.7-1.7l-1.7-1.7l-1.7-1.7l1.7-1.7l1.7-1.7l-1.7-1.7l-1.7-1.7l1.7-1.7l1.7-1.7
			l-1.7-1.7c0,0-1.7,0-1.7-1.7v-1.7c1.7,0,1.7-1.7,2.6-1.7c-1.7,0-1.7-1.7-2.6-2.6c0-1.7,1.7-1.7,1.7-2.6l1.7-1.7l-1.7-1.7l-1.7-1.7
			c0,0,1.7,0,1.7-1.7l1.7-1.7l-1.7-1.7c-2.6,0-7,0-9.6,0l-1.7,1.7l1.7,1.7c1.7,0,1.7,0,2.6,0v1.7c-1.7,0-1.7,0-2.6,1.7
			c-1.7,0-1.7,1.7-2.6,1.7c1.7,0,1.7,1.7,2.6,1.7c1.7,0,1.7,0,2.6,0v1.7c-2.6,0-4.3,0-7,0s-2.6,1.7-2.6,2.6c0,7-1.7,14.7-1.7,21.5
			c0,1.7,0,4.3,2.6,4.3s2.6-1.7,2.6-4.3c0-5.3,1.7-13.9,1.7-19h5.3l0,0h-1.5c-1.7,0-1.7,1.7-2.6,1.7c1.7,0,1.7,1.7,2.6,1.7l0,0
			l1.7,1.7l-1.7,1.9c0,0,0,0-1.7,0s-1.7,1.7-2.6,1.7c1.7,0,1.7,1.7,2.6,1.7c1.7,0,1.7,0,2.6,1.7l-1.7,1.7c-1.7,0-1.7,1.7-2.6,1.7
			c1.7,0,1.7,1.7,2.6,1.7h2.6v2.6h-1.9c-1.7,0-2.6,1.7-2.6,1.7c1.7,0,2.6,1.7,2.6,1.7s1.7,0,1.7,1.7l-1.7,1.7
			c-4.3,1.7-5.3,1.7-2.6,5.3c-2.6,0-4.3,0-7,0c-1.7,0-2.6,0-2.6,1.7c0,1.7,0,2.6,0,4.3c1.7,2.6,2.6,5.3,2.6,8.5c-1.7,0-2.6,0-2.6,0
			c0,1.7,0,2.6,0,4.3v1.7c0,0,1.7,0,2.6,0c23.2,0,45,0,68.2,0c4.3,0,4.3,0,5.3-4.3c0-1.7,0-1.7,0-2.6c0-5.3,2.6-9.6,4.3-14.7
			C1105.6,417.6,1104.7,415.9,1104.7,415L1104.7,415z M1085.8,434c0,1.7-1.7,1.7-2.6,1.7c-14.7,0-30.3,0-45,0
			c-1.7,0-2.6-1.7-2.6-1.7c-1.7-1.7-1.7-4.3-2.6-7c8.5,0,18.1,0,25.8,0c2.6,0,5.3,2.6,8.5,1.7c7-2.6,13.9-1.7,20.9-1.7
			c1.7,0,1.7,0,2.6,0C1088.3,427.2,1086.8,431.4,1085.8,434z M1098.8,420.2c-1.7,4.3-1.7,8.5-2.6,13.9h-5.3c1.7-2.6,2.6-5.3,4.3-8.5
			c2.6-4.3,1.7-5.3-2.6-5.3s-9.6,0-14.7,0v-25.8c4.3,4.3,8.5,8.5,13.9,13.9c2.6,2.6,5.3,7,8.5,9.6
			C1098.8,418.4,1098.8,420.2,1098.8,420.2z"/>
		<path fill="#F4AE00" d="M1256.7,408.2c1.7,0,1.7,0,2.6,0c2.6,0,2.6,1.7,4.3,4.3c0,9.6,0,9.6-8.5,9.6c-2.6,0-4.3-1.7-4.3-4.3
			c0-1.7,0-2.6,0-4.3c0-4.3,0-4.3,4.3-4.3C1256.1,408.2,1256.7,408.2,1256.7,408.2z"/>
		<path fill="#F4AE00" d="M1240.5,485.8C1240.5,485.8,1240.5,487.5,1240.5,485.8C1240.5,487.5,1240.5,485.8,1240.5,485.8
			L1240.5,485.8L1240.5,485.8c-8.5-9.6-19-20.9-27.5-28.6c-1.7-1.7-19-16.4-5.3-16.4c-2.6-8.5-2.6-14.7-4.3-25.2
			c0-7-1.7-16.4-1.7-23.2c0-2.6,0-5.3,0-9.6c0-5.3,0-7,1.7-14.7c2.6-16.4-1.7-31.8-1.7-46.7c0-20.9,0-39.6,0-58.6c0-8.5,0-19,0-27.5
			c0-5.3,2.6-19,0-25.2c-2.6-4.3-45,9.6-50.9,13.9c-8.5,2.6-7,5.3-7,16.4c0,2.6-2.6,19,1.7,19c7,1.7,18.1-2.6,25.2-2.6
			c8.5-1.7,19-2.6,27.5-4.3v82.1c-25.2-16.4-45,1.7-48.4,27.5c-4.3-5.3-9.6-11.3-16.4-16.4c-4.3-4.3-18.1,5.3-20.9,7
			c-8.5,4.3-13.9,5.3-4.3,13.9c7,5.3,14.7-1.7,21.5-5.3c2.6,14.7,4.3,16.4-2.6,27.5c-2.6,4.3-5.3,8.5-9.6,13.9
			c-2.6,2.6-8.5,13.9-8.5,13.9s-8.5,19-7,23.2c4.3,4.3,5.3,0,7-4.3c1.7-8.5,5.3-18.1,9.6-23.2c4.3-5.3,9.6-13.9,14.7-20.9
			c7-9.6,7-11.3,4.3-23.2c-1.7-4.3-1.7-16.4-8.5-11.3c-5.3,4.3-11.3,11.3-19,5.3c4.3-1.7,8.5-4.3,11.3-5.3c8.5-4.3,7-4.3,14.7,1.7
			c8.5,8.5,8.5,19,1.7,28.6c-7,11.3-14.7,21.5-21.5,32.8c-1.7,2.6-8.5,9.6-5.3,13.9c4.3,4.3,7,8.5,11.3,11.3
			c-2.6-1.7-13.9-7-16.4-2.6c-1.7,2.6,11.3,7,13.9,7c7,2.6,7,0,13.9,5.3c4.3,5.3,7,9.6,5.3,18.1c-4.3,14.7-19,25.8-21.5,42.4
			c-1.7,8.5,2.6,25.2,11.3,28.6c9.6,4.3,28.6,1.7,39.6,1.7c18.1,0,34.5,0,51.8-1.7c11.3-1.7,30.3-2.6,34.5-18.1
			C1259.3,511,1247.3,495.4,1240.5,485.8z M1161,250.3c-4.3,1.7-8.5,1.7-14.7,2.6c0-7,0-14.7,0-21.5c0-2.6,13.9-5.3,16.4-5.3
			c-5.3,7-5.3,18.1,1.7,25.2C1163.6,250.3,1162.7,250.3,1161,250.3z M1199,453c5.3,5.3,9.6,11.3,16.4,18.1c-2.6,1.7-4.3,4.3-7,5.3
			c-5.3,4.3-5.3,1.7-11.3-2.6c-5.3-4.3-13.9-9.6-19-14.7C1186.8,454.7,1193.8,446.2,1199,453z M1154,441.7
			c-1.7-8.5,2.6-8.5,9.6-13.9c5.3-4.3,11.3,11.3,11.3,14.7c1.7,4.3,1.7,14.7-4.3,5.3C1168.7,443.4,1163.6,441,1154,441.7z
			 M1170.6,455.5c-4.3,2.6-8.5,4.3-13.9,7c0-4.3-1.7-9.6-1.7-14.7C1163.6,446.2,1166.1,448.7,1170.6,455.5z M1172.1,424.6
			C1172.1,424.6,1172.1,422.9,1172.1,424.6c0-1.7-1.7-1.7-1.7-1.7v-1.7l0,0l0,0c4.3-11.3,16.4-19,25.2-25.2
			c0,13.9,1.7,25.8,1.7,39.6c-5.3,0-9.6,0-16.4,0C1180,435.7,1173,427.2,1172.1,424.6z M1196.4,441L1196.4,441
			c-2.6,4.3-8.5,5.3-13.9,7c0-2.6-1.7-5.3-1.7-8.5C1186.8,441,1193.8,439.1,1196.4,441z M1196.4,353L1196.4,353c5.3,7-2.6,7-5.3,8.5
			c-7,4.3,4.3,4.3,7,4.3c-1.7,11.3-7,13.9-13.9,20.9c-7,7-16.4-7-18.1-13.9c7-1.7,7,2.6,14.7,2.6c2.6,0,8.5-2.6,8.5-7
			c0-5.3-19,8.5-9.6-5.3c9.6,9.6,5.3-8.5-1.7-7c-4.3,1.7-2.6,9.6-7,11.3c-4.3,1.7-7-5.3-7-8.5c0-7,5.3-19,14.7-18.1
			c4.3,1.7,7-1.7,9.6,1.7C1191.1,346,1193.8,350.2,1196.4,353L1196.4,353L1196.4,353z M1181.5,247.7c5.3-9.6,2.6-21.5-8.5-25.2
			c7-1.7,16.4-4.3,23.2-5.3V243C1195.5,246,1184.3,247.7,1181.5,247.7z M1195.5,339.1c0,1.7,1.7,4.3,1.7,5.3c-1.7,0-4.3-4.3-4.3-4.3
			C1192.1,339.1,1193.8,339.1,1195.5,339.1z M1152.3,353C1152.3,351.9,1152.3,351.9,1152.3,353
			C1152.3,351.9,1152.3,351.9,1152.3,353C1152.3,351.9,1152.3,351.9,1152.3,353c1.7-8.5,5.3-16.4,13.9-19c4.3-1.7,20.9-4.3,21.5,2.6
			c-8.5,1.7-19,0-25.8,7c-8.5,9.6-2.6,19-1.7,30.3c1.7,7,5.3,14.7,13.9,18.1c4.3,1.7,9.6,2.6,13.9,1.7c1.7-1.7,7-7,8.5-5.3
			c-4.3,5.3-11.3,11.3-18.1,16.4c-2.6,4.3-4.3,4.3-7,0c-2.6-2.6-7-7-9.6-9.6c-5.3-5.3-7-7-8.5-14.7
			C1151.4,369.2,1151.4,361.5,1152.3,353C1152.3,351.9,1152.3,351.9,1152.3,353z M1118.6,432.3c-4.3-4.3-7-4.3-2.6-9.6
			c2.6-4.3,5.3-8.5,8.5-13.9c2.6-4.3,16.4-25.8,19-25.8C1142,401.2,1126.5,417.6,1118.6,432.3z M1135,448.7L1135,448.7L1135,448.7
			C1135,447.9,1135,447.9,1135,448.7C1135,447.9,1135,447.9,1135,448.7c-2.6-2.6-5.3-5.3-9.6-8.5c-5.3-4.3,1.7-9.6,4.3-16.4
			c7-9.6,14.7-21.5,20.9-32.8c5.3,5.3,11.3,11.3,18.1,16.4c5.3,5.3-1.7,14.7-7,20.9c-4.3,4.3-11.3,1.7-16.4,4.3
			c-4.3,2.6,4.3,4.3,4.3,4.3c0,4.3,1.7,8.5,1.7,13.9c0,4.3,0,14.7,2.6,19c2.6,4.3,16.4-7,20.9-7c5.3,0,18.1,11.3,21.5,16.4
			c5.3,4.3,8.5,4.3,7,11.3c-1.7,4.3-2.6,9.6-2.6,14.7c-9.6-2.6-39.6-7-41.4-19c0-2.6,5.3-13.9-2.6-13.9c-7,0-2.6,9.6-1.7,14.7
			c-2.6-1.7-5.3-2.6-8.5-4.3c-7-2.6-2.6-4.3-1.7-11.3C1142.7,462.6,1140.1,455.5,1135,448.7z M1135.9,485.2l14.7,7
			c7,2.6,2.6,7,1.7,14.7c-7-4.3-16.4-5.3-25.2-7C1128.8,492.8,1133.3,488.4,1135.9,485.2z M1132.5,538.5L1132.5,538.5L1132.5,538.5
			c-8.5,0-20.9-37.1-1.7-32.8c7,1.7,16.4,1.7,20.9,8.5c4.5,6.8,5.3,18.1,8.5,25.2C1149.7,538.5,1142,538.5,1132.5,538.5z
			 M1156.8,511L1156.8,511L1156.8,511c-1.7-2.6,4.3-13.9,4.3-16.4c9.6,2.6,20.9,7,30.3,9.6c-4.3,7-11.3,9.6-19,11.3
			c-4.3,1.7-7,1.7-11.3,2.6C1159.3,517.8,1158.2,515.2,1156.8,511z M1212,536.8c-8.5,0-18.1,1.7-25.8,1.7c-5.3,0-9.6,0-16.4,0
			c-7,0-5.3-1.7-7-7c-1.7-5.3,11.3-5.3,16.4-8.5c7-2.6,13.9-7,18.1-14.7c1.7,5.3,4.3,31.8,16.4,27.5C1212.6,535,1212,535,1212,536.8
			z M1240.5,529.9L1240.5,529.9L1240.5,529.9z M1240.5,529.9L1240.5,529.9L1240.5,529.9z M1240.5,529.9
			C1240.5,529.9,1242,529.9,1240.5,529.9C1242,529.9,1240.5,529.9,1240.5,529.9z M1243.1,528.9
			C1243.1,528.9,1244.8,528.9,1243.1,528.9C1244.8,528.9,1243.1,528.9,1243.1,528.9z M1243.1,529.9L1243.1,529.9L1243.1,529.9
			c-5.3,2.6-13.9,5.3-20.9,5.3c-9.6,1.7-8.5-1.7-14.7-7c-8.5-11.3-5.3-28.6,0-42.4c1.7-5.3,5.3-8.5,11.3-9.6
			c5.3-1.7,14.7,13.9,16.4,16.4C1243.1,501.4,1259.3,518.6,1243.1,529.9z"/>
		<path fill="#F4AE00" d="M1159.3,250.3L1159.3,250.3L1159.3,250.3z"/>
		<path fill="#F4AE00" d="M1159.3,250.3L1159.3,250.3L1159.3,250.3z"/>
		<path fill="#F4AE00" d="M1159.3,250.3L1159.3,250.3L1159.3,250.3z"/>
		<path fill="#F4AE00" d="M1159.3,250.3L1159.3,250.3L1159.3,250.3z"/>
		<path fill="#F4AE00" d="M1159.3,250.3C1159.3,250.3,1161,250.3,1159.3,250.3C1161,250.3,1159.3,250.3,1159.3,250.3z"/>
		<path fill="#F4AE00" d="M1196.4,351.9C1195.5,351.9,1195.5,351.9,1196.4,351.9L1196.4,351.9z"/>
		<path fill="#F4AE00" d="M1196.4,351.9L1196.4,351.9L1196.4,351.9z"/>
		<path fill="#F4AE00" d="M1152.3,354.7L1152.3,354.7L1152.3,354.7z"/>
		<path fill="#F4AE00" d="M1152.3,353L1152.3,353L1152.3,353z"/>
		<path fill="#F4AE00" d="M1154,346L1154,346L1154,346z"/>
		<path fill="#F4AE00" d="M1154,346L1154,346L1154,346z"/>
		<path fill="#F4AE00" d="M1154,346C1154,346,1154,347.7,1154,346C1154,347.7,1154,346,1154,346z"/>
		<path fill="#F4AE00" d="M1154,347.7C1154,347.7,1152.3,347.7,1154,347.7C1152.3,347.7,1154,347.7,1154,347.7z"/>
		<path fill="#F4AE00" d="M1152.3,348.5L1152.3,348.5L1152.3,348.5z"/>
		<path fill="#F4AE00" d="M1152.3,348.5v1.7C1152.3,350.2,1152.3,350.2,1152.3,348.5z"/>
		<path fill="#F4AE00" d="M1152.3,351.9L1152.3,351.9L1152.3,351.9z"/>
		<path fill="#F4AE00" d="M1135.9,538.5L1135.9,538.5L1135.9,538.5z"/>
		<path fill="#F4AE00" d="M1135.9,538.5C1135,538.5,1135,538.5,1135.9,538.5C1135,538.5,1135,538.5,1135.9,538.5z"/>
		<path fill="#F4AE00" d="M1135,538.5L1135,538.5L1135,538.5z"/>
		<path fill="#F4AE00" d="M1133.3,538.5L1133.3,538.5L1133.3,538.5z"/>
		<path fill="#F4AE00" d="M1156.8,511.6L1156.8,511.6L1156.8,511.6z"/>
		<path fill="#F4AE00" d="M1156.8,511.6L1156.8,511.6L1156.8,511.6z"/>
		<path fill="#F4AE00" d="M1156.8,511.6L1156.8,511.6L1156.8,511.6z"/>
		<path fill="#F4AE00" d="M1156.8,511.6C1156.8,511.6,1156.8,511,1156.8,511.6C1156.8,511,1156.8,511.6,1156.8,511.6z"/>
		<path fill="#F4AE00" d="M1205.8,536.8C1204.9,536.8,1204.9,536.8,1205.8,536.8L1205.8,536.8z"/>
		<path fill="#F4AE00" d="M1205.8,536.8L1205.8,536.8L1205.8,536.8z"/>
		<path fill="#F4AE00" d="M1205.8,536.8L1205.8,536.8L1205.8,536.8z"/>
		<path fill="#F4AE00" d="M1207.7,536.8L1207.7,536.8L1207.7,536.8z"/>
		<path fill="#F4AE00" d="M1209.4,536.8L1209.4,536.8L1209.4,536.8z"/>
		<path fill="#F4AE00" d="M1209.4,536.8h1.7H1209.4z"/>
		<path fill="#F4AE00" d="M1210,536.8C1212,536.8,1212,536.8,1210,536.8C1212,536.8,1210,536.8,1210,536.8z"/>
		<path fill="#F4AE00" d="M1212,536.8L1212,536.8L1212,536.8z"/>
		<path fill="#F4AE00" d="M1244.8,528.9L1244.8,528.9L1244.8,528.9z"/>
		<path fill="#F4AE00" d="M1135.9,485.2C1133.3,488.4,1142.7,487.5,1135.9,485.2L1135.9,485.2z"/>
		<path fill="#F4AE00" d="M1172.1,420.2L1172.1,420.2C1172.1,420.2,1170.6,420.2,1172.1,420.2c-1.7,1.7-1.7,1.7-1.7,1.7l0,0
			c0,0,0,0,0,1.7l0,0C1170.6,421.9,1170.6,420.2,1172.1,420.2z"/>
		<path fill="#F4AE00" d="M1118.6,432.3C1126.5,418.4,1116.9,431.4,1118.6,432.3L1118.6,432.3z"/>
		<path fill="#F4AE00" d="M1181.5,247.7C1186.8,246,1184.3,242.4,1181.5,247.7L1181.5,247.7z"/>
		<path fill="#F4AE00" d="M1170.6,455.5C1166.1,447.9,1166.1,458.9,1170.6,455.5L1170.6,455.5z"/>
		<path fill="#F4AE00" d="M1217.1,468.5C1210,462.6,1212.6,471.1,1217.1,468.5L1217.1,468.5z"/>
		<path fill="#F4AE00" d="M1154,441.7C1165.3,439.1,1154,441,1154,441.7L1154,441.7z"/>
	</g>
</g>
</svg>
